<?xml version="1.0" standalone="no"?>
<!DOCTYPE svg PUBLIC "-//W3C//DTD SVG 20010904//EN"
 "http://www.w3.org/TR/2001/REC-SVG-20010904/DTD/svg10.dtd">
<svg version="1.0" xmlns="http://www.w3.org/2000/svg"
 width="700.000000pt" height="700.000000pt" viewBox="0 0 700.000000 700.000000"
 preserveAspectRatio="xMidYMid meet">
<metadata>
Created by potrace 1.14, written by Peter Selinger 2001-2017
</metadata>
<g transform="translate(0.000000,700.000000) scale(0.100000,-0.100000)"
fill="#000000" stroke="none">
<path d="M1670 6991 c-54 -17 -109 -52 -143 -91 -56 -66 -67 -114 -68 -309 -1
-94 -2 -171 -3 -171 -1 -1 -26 -3 -56 -6 -202 -20 -391 -159 -475 -348 -53
-120 -51 3 -50 -2891 l1 -2690 28 -80 c61 -179 187 -307 373 -378 l58 -22
2140 -3 c2140 -2 2140 -2 2215 19 197 54 340 190 406 384 l28 80 1 2690 c1
2654 -1 2761 -30 2840 -19 51 -40 94 -69 140 -88 140 -268 248 -433 259 l-48
3 -2 174 c-3 196 -14 243 -71 310 -19 22 -57 52 -86 66 -43 23 -64 27 -136 27
-76 1 -91 -2 -139 -29 -29 -16 -68 -47 -86 -68 -55 -64 -66 -117 -67 -308 0
-116 -4 -169 -12 -171 -6 -2 -137 -3 -291 -3 l-279 1 -1 180 c-2 169 -3 183
-27 234 -48 107 -132 161 -252 166 -127 5 -230 -56 -279 -165 -19 -40 -22 -71
-27 -230 l-5 -185 -285 0 -285 0 -5 185 c-5 157 -9 191 -26 229 -77 168 -299
222 -449 108 -42 -32 -90 -103 -102 -150 -2 -13 -6 -99 -8 -193 -1 -93 -3
-172 -4 -175 -1 -4 -544 -5 -573 -1 -4 1 -7 76 -7 169 0 194 -11 245 -67 310
-52 62 -122 94 -209 97 -38 2 -81 0 -95 -4z"/>
</g>
</svg>
